<?xml version="1.0" encoding="UTF-8" standalone="no"?>
<!-- Created with Inkscape (http://www.inkscape.org/) -->

<svg
   xmlns:dc="http://purl.org/dc/elements/1.1/"
   xmlns:cc="http://creativecommons.org/ns#"
   xmlns:rdf="http://www.w3.org/1999/02/22-rdf-syntax-ns#"
   xmlns:svg="http://www.w3.org/2000/svg"
   xmlns="http://www.w3.org/2000/svg"
   xmlns:sodipodi="http://sodipodi.sourceforge.net/DTD/sodipodi-0.dtd"
   xmlns:inkscape="http://www.inkscape.org/namespaces/inkscape"
   width="213.25844mm"
   height="128.72493mm"
   viewBox="0 0 755.64013 456.11195"
   id="svg2"
   version="1.1"
   inkscape:version="0.91 r13725"
   sodipodi:docname="core-new.svg">
  <defs
     id="defs4" />
  <sodipodi:namedview
     id="base"
     pagecolor="#ffffff"
     bordercolor="#666666"
     borderopacity="1.0"
     inkscape:pageopacity="0.0"
     inkscape:pageshadow="2"
     inkscape:zoom="1.979899"
     inkscape:cx="354.86055"
     inkscape:cy="261.00428"
     inkscape:document-units="px"
     inkscape:current-layer="layer1"
     showgrid="false"
     showguides="false"
     inkscape:window-width="2560"
     inkscape:window-height="1394"
     inkscape:window-x="0"
     inkscape:window-y="247"
     inkscape:window-maximized="1"
     fit-margin-top="5"
     fit-margin-left="5"
     fit-margin-right="5"
     fit-margin-bottom="5" />
  <metadata
     id="metadata7">
    <rdf:RDF>
      <cc:Work
         rdf:about="">
        <dc:format>image/svg+xml</dc:format>
        <dc:type
           rdf:resource="http://purl.org/dc/dcmitype/StillImage" />
        <dc:title />
      </cc:Work>
    </rdf:RDF>
  </metadata>
  <g
     inkscape:label="Layer 1"
     inkscape:groupmode="layer"
     id="layer1"
     transform="translate(-38.984077,-413.24677)">
    <text
       xml:space="preserve"
       style="font-style:normal;font-weight:normal;font-size:12.5px;line-height:125%;font-family:sans-serif;text-align:end;letter-spacing:0px;word-spacing:0px;text-anchor:end;fill:#000000;fill-opacity:1;stroke:none;stroke-width:1px;stroke-linecap:butt;stroke-linejoin:miter;stroke-opacity:1"
       x="324.28571"
       y="694.50507"
       id="text4943"
       sodipodi:linespacing="125%"><tspan
         sodipodi:role="line"
         id="tspan4945"
         x="324.28571"
         y="694.50507" /></text>
    <path
       style="fill:#2a7fff;fill-opacity:1;stroke:#000000;stroke-width:1;stroke-linecap:square;stroke-miterlimit:4;stroke-dasharray:none;stroke-opacity:1"
       d="m 497.1375,556.33459 0,25.5449 14.88229,3.2207 0,13.4453 -13.94883,3.0195 0,26.9122 0.0629,0 0,25.4023 14.8823,3.2207 0,13.4453 -13.94883,3.0195 0,26.9122 40.69293,0 20.64756,0 38.29154,0 -0.50507,-22.3868 13.44373,-4.0297 0,-14.9605 -13.87213,-3.2207 -0.99637,-99.5449 -37.35808,0 -20.64754,0 z"
       id="path5083"
       inkscape:connector-curvature="0"
       sodipodi:nodetypes="ccccccccccccccccccccccc" />
    <g
       transform="translate(-175.71684,3.1175567)"
       id="g5170">
      <path
         style="fill:#2a7fff;fill-opacity:1;stroke:#000000;stroke-width:1;stroke-linecap:square;stroke-miterlimit:4;stroke-dasharray:none;stroke-opacity:1"
         d="m 281.48995,427.71973 0,25.54492 12.01953,3.2207 0,13.44532 -11.26562,3.01953 0,26.91211 32.86524,0 16.67578,0 30.92579,0 0,-26.91211 11.26562,-3.01953 0,-13.44532 -12.01953,-3.2207 0,-25.54492 -30.17188,0 -16.67578,0 -33.61915,0 z"
         id="path5172"
         inkscape:connector-curvature="0" />
      <text
         sodipodi:linespacing="125%"
         id="text5174"
         y="468.26828"
         x="327.24609"
         style="font-style:normal;font-weight:normal;font-size:12.5px;line-height:125%;font-family:sans-serif;text-align:center;letter-spacing:0px;word-spacing:0px;text-anchor:middle;fill:#000000;fill-opacity:1;stroke:none;stroke-width:1px;stroke-linecap:butt;stroke-linejoin:miter;stroke-opacity:1"
         xml:space="preserve"><tspan
           y="468.26828"
           x="327.24609"
           id="tspan5176"
           sodipodi:role="line">Angle</tspan></text>
    </g>
    <g
       id="g5182"
       transform="translate(107.91705,109.72094)" />
    <g
       transform="translate(-54.756127,181.69716)"
       id="g4505"
       style="fill:#ffffff">
      <path
         style="fill:#ffffff;fill-opacity:1;stroke:#000000;stroke-width:1;stroke-linecap:square;stroke-miterlimit:4;stroke-dasharray:none;stroke-opacity:1"
         d="m 502.56976,450.36956 0,72.14258 0.13281,0 0,71.75195 46.72656,0 0,-26.91211 -10.625,-3.01953 0,-13.44531 11.33594,-3.2207 0,-25.1543 0.0312,0 0,-26.91211 11.26563,-3.01953 0,-13.44531 -12.01954,-3.22071 0,-25.54492 -46.84765,0 z"
         id="path4507"
         inkscape:connector-curvature="0" />
    </g>
    <g
       id="g4511"
       transform="translate(175.0576,100.78852)">
      <path
         inkscape:connector-curvature="0"
         id="path4513"
         d="m 502.56976,450.36956 0,72.14258 0.13281,0 0,71.75195 46.72656,0 0,-26.91211 -10.625,-3.01953 0,-13.44531 11.33594,-3.2207 0,-25.1543 0.0312,0 0,-26.91211 11.26563,-3.01953 0,-13.44531 -12.01954,-3.22071 0,-25.54492 -46.84765,0 z"
         style="fill:#ffffff;fill-opacity:1;stroke:#000000;stroke-width:1;stroke-linecap:square;stroke-miterlimit:4;stroke-dasharray:none;stroke-opacity:1" />
      <text
         transform="matrix(0,-1,1,0,0,0)"
         sodipodi:linespacing="125%"
         id="text4515"
         y="530.39142"
         x="-518.96277"
         style="font-style:normal;font-weight:normal;font-size:12.5px;line-height:125%;font-family:sans-serif;text-align:center;letter-spacing:0px;word-spacing:0px;text-anchor:middle;fill:#000000;fill-opacity:1;stroke:none;stroke-width:1px;stroke-linecap:butt;stroke-linejoin:miter;stroke-opacity:1"
         xml:space="preserve"><tspan
           y="530.39142"
           x="-518.96277"
           id="tspan4517"
           sodipodi:role="line">connect()</tspan></text>
    </g>
    <path
       inkscape:connector-curvature="0"
       style="fill:#ffffff;fill-opacity:1;stroke:#000000;stroke-width:1;stroke-linecap:square;stroke-miterlimit:4;stroke-dasharray:none;stroke-opacity:1"
       d="m 428.91136,776.84882 0,-72.14257 -0.13281,0 0,-71.75196 -46.72656,0 0,26.91211 10.625,3.01953 0,13.44532 -11.33594,3.2207 0,25.1543 -0.0312,0 0,26.91211 -11.26563,3.01953 0,13.44531 12.01954,3.2207 0,25.54492 46.84765,0 z"
       id="path4519" />
    <text
       xml:space="preserve"
       style="font-style:normal;font-weight:normal;font-size:12.5px;line-height:125%;font-family:sans-serif;text-align:center;letter-spacing:0px;word-spacing:0px;text-anchor:middle;fill:#000000;fill-opacity:1;stroke:none;stroke-width:1px;stroke-linecap:butt;stroke-linejoin:miter;stroke-opacity:1"
       x="-702.96387"
       y="410.05753"
       id="text4521"
       sodipodi:linespacing="125%"
       transform="matrix(0,-1,1,0,0,0)"><tspan
         sodipodi:role="line"
         id="tspan4523"
         x="-702.96387"
         y="410.05753">setBackend()</tspan></text>
    <g
       transform="matrix(-1,0,0,1,530.03062,377.28732)"
       id="g4525"
       style="fill:#ffffff">
      <path
         id="path4527"
         d="m 31.495677,325.23683 -46.847653,0 0,72.14258 47.601553,0 0,-26.91211 11.26563,-3.01953 0,-13.44531 -12.01953,-3.2207 0,-25.54493 z"
         style="fill:#ffffff;fill-opacity:1;stroke:#000000;stroke-width:1;stroke-linecap:square;stroke-miterlimit:4;stroke-dasharray:none;stroke-opacity:1"
         inkscape:connector-curvature="0" />
    </g>
    <g
       transform="matrix(-1,0,0,1,966.18129,276.24128)"
       id="g4529"
       style="fill:#ffffff">
      <path
         id="path4531"
         d="m 366.39363,427.50968 0,25.54493 12.01953,3.2207 0,13.44531 -11.26563,3.01953 0,26.91211 49.54102,0 0,-72.14258 -50.29492,0 z"
         style="fill:#ffffff;fill-opacity:1;stroke:#000000;stroke-width:1;stroke-linecap:square;stroke-miterlimit:4;stroke-dasharray:none;stroke-opacity:1"
         inkscape:connector-curvature="0" />
    </g>
    <g
       id="g4533"
       transform="matrix(-1,0,0,-1,1154.6676,1225.0143)"
       style="fill:#ffffff">
      <path
         inkscape:connector-curvature="0"
         id="path4535"
         d="m 502.56976,450.36956 0,72.14258 0.13281,0 0,71.75195 46.72656,0 0,-26.91211 -10.625,-3.01953 0,-13.44531 11.33594,-3.2207 0,-25.1543 0.0312,0 0,-26.91211 11.26563,-3.01953 0,-13.44531 -12.01954,-3.22071 0,-25.54492 -46.84765,0 z"
         style="fill:#ffffff;fill-opacity:1;stroke:#000000;stroke-width:1;stroke-linecap:square;stroke-miterlimit:4;stroke-dasharray:none;stroke-opacity:1" />
    </g>
    <g
       transform="translate(175.0576,253.64568)"
       id="g4537">
      <path
         style="fill:#ffffff;fill-opacity:1;stroke:#000000;stroke-width:1;stroke-linecap:square;stroke-miterlimit:4;stroke-dasharray:none;stroke-opacity:1"
         d="m 502.56976,450.36956 0,72.14258 0.13281,0 0,71.75195 46.72656,0 0,-26.91211 -10.625,-3.01953 0,-13.44531 11.33594,-3.2207 0,-25.1543 0.0312,0 0,-26.91211 11.26563,-3.01953 0,-13.44531 -12.01954,-3.22071 0,-25.54492 -46.84765,0 z"
         id="path4539"
         inkscape:connector-curvature="0" />
      <text
         xml:space="preserve"
         style="font-style:normal;font-weight:normal;font-size:12.5px;line-height:125%;font-family:sans-serif;text-align:center;letter-spacing:0px;word-spacing:0px;text-anchor:middle;fill:#000000;fill-opacity:1;stroke:none;stroke-width:1px;stroke-linecap:butt;stroke-linejoin:miter;stroke-opacity:1"
         x="-518.96277"
         y="530.39142"
         id="text4541"
         sodipodi:linespacing="125%"
         transform="matrix(0,-1,1,0,0,0)"><tspan
           sodipodi:role="line"
           id="tspan4543"
           x="-518.96277"
           y="530.39142">connect()</tspan></text>
    </g>
    <rect
       y="547.35651"
       x="651.32703"
       height="304.28571"
       width="28.571428"
       id="rect4545"
       style="fill:#b3b3b3;fill-opacity:1;stroke:none;stroke-width:2;stroke-linecap:square;stroke-miterlimit:4;stroke-dasharray:none;stroke-opacity:1" />
    <rect
       style="fill:#b3b3b3;fill-opacity:1;stroke:none;stroke-width:2;stroke-linecap:square;stroke-miterlimit:4;stroke-dasharray:none;stroke-opacity:1"
       id="rect4547"
       width="28.571428"
       height="303.57141"
       x="422.04129"
       y="547.35645" />
    <g
       transform="translate(35.483305,90.116829)"
       id="g4569">
      <g
         id="g4571"
         transform="translate(5.7142857,-0.71428569)"
         style="fill:#ffffff">
        <g
           style="fill:#ffffff;fill-opacity:1"
           transform="translate(-214.05566,93.896494)"
           id="g4573">
          <path
             style="fill:#ffffff;fill-opacity:1;stroke:#000000;stroke-width:1;stroke-linecap:square;stroke-miterlimit:4;stroke-dasharray:none;stroke-opacity:1"
             d="m 502.56976,450.36956 0,72.14258 0.13281,0 0,71.75195 46.72656,0 0,-26.91211 -10.625,-3.01953 0,-13.44531 11.33594,-3.2207 0,-25.1543 0.0312,0 0,-26.91211 11.26563,-3.01953 0,-13.44531 -12.01954,-3.22071 0,-25.54492 -46.84765,0 z"
             id="path4575"
             inkscape:connector-curvature="0" />
        </g>
        <g
           transform="matrix(-0.90961937,0,0,0.98606898,668.46587,194.27116)"
           id="g4577"
           style="fill:#ffffff">
          <path
             id="path4579"
             d="m 366.39363,427.50968 0,25.54493 12.15223,3.2207 0,13.44531 -11.39001,3.01953 0,26.91211 50.08796,0 0,-72.14258 -50.85018,0 z"
             style="fill:#ffffff;fill-opacity:1;stroke:none;stroke-width:1.05588472;stroke-linecap:square;stroke-miterlimit:4;stroke-dasharray:none;stroke-opacity:1"
             inkscape:connector-curvature="0" />
        </g>
      </g>
      <text
         xml:space="preserve"
         style="font-style:normal;font-weight:normal;font-size:12.5px;line-height:125%;font-family:sans-serif;text-align:center;letter-spacing:0px;word-spacing:0px;text-anchor:middle;fill:#000000;fill-opacity:1;stroke:none;stroke-width:1px;stroke-linecap:butt;stroke-linejoin:miter;stroke-opacity:1"
         x="-619.32159"
         y="322.2424"
         id="text4581"
         sodipodi:linespacing="125%"
         transform="matrix(0,-1,1,0,0,0)"><tspan
           sodipodi:role="line"
           id="tspan4583"
           x="-619.32159"
           y="322.2424">Drone</tspan></text>
    </g>
    <g
       id="g4211"
       transform="translate(-118.92857,-3.9285714)">
      <g
         style="fill:#ffffff"
         id="g4549"
         transform="matrix(-1,0,0,-1,1183.8503,1241.7067)">
        <g
           id="g4551"
           transform="translate(-214.05566,93.896494)"
           style="fill:#ffffff;fill-opacity:1">
          <path
             inkscape:connector-curvature="0"
             id="path4553"
             d="m 502.56976,450.36956 0,72.14258 0.13281,0 0,71.75195 46.72656,0 0,-26.91211 -10.625,-3.01953 0,-13.44531 11.33594,-3.2207 0,-25.1543 0.0312,0 0,-26.91211 11.26563,-3.01953 0,-13.44531 -12.01954,-3.22071 0,-25.54492 -46.84765,0 z"
             style="fill:#ffffff;fill-opacity:1;stroke:#000000;stroke-width:1;stroke-linecap:square;stroke-miterlimit:4;stroke-dasharray:none;stroke-opacity:1" />
        </g>
        <g
           style="fill:#ffffff"
           id="g4555"
           transform="matrix(-0.90961937,0,0,0.98606898,668.46587,194.27116)">
          <path
             inkscape:connector-curvature="0"
             style="fill:#ffffff;fill-opacity:1;stroke:none;stroke-width:1.05588472;stroke-linecap:square;stroke-miterlimit:4;stroke-dasharray:none;stroke-opacity:1"
             d="m 366.39363,427.50968 0,25.54493 12.15223,3.2207 0,13.44531 -11.39001,3.01953 0,26.91211 50.08796,0 0,-72.14258 -50.85018,0 z"
             id="path4557" />
        </g>
      </g>
      <text
         xml:space="preserve"
         style="font-style:normal;font-weight:normal;font-size:12.5px;line-height:125%;font-family:sans-serif;text-align:center;letter-spacing:0px;word-spacing:0px;text-anchor:middle;fill:#000000;fill-opacity:1;stroke:none;stroke-width:1px;stroke-linecap:butt;stroke-linejoin:miter;stroke-opacity:1"
         x="-629.89429"
         y="876.48236"
         id="text4585"
         sodipodi:linespacing="125%"
         transform="matrix(0,-1,1,0,0,0)"><tspan
           sodipodi:role="line"
           id="tspan4587"
           x="-629.89429"
           y="876.48236">Web Socket</tspan></text>
    </g>
    <g
       id="g4202"
       transform="translate(-118.92857,-2.5)">
      <g
         style="fill:#ffffff"
         transform="matrix(-1,0,0,-1,1183.136,1393.8496)"
         id="g4559">
        <g
           style="fill:#ffffff;fill-opacity:1"
           transform="translate(-214.05566,93.896494)"
           id="g4561">
          <path
             style="fill:#ffffff;fill-opacity:1;stroke:#000000;stroke-width:1;stroke-linecap:square;stroke-miterlimit:4;stroke-dasharray:none;stroke-opacity:1"
             d="m 502.56976,450.36956 0,72.14258 0.13281,0 0,71.75195 46.72656,0 0,-26.91211 -10.625,-3.01953 0,-13.44531 11.33594,-3.2207 0,-25.1543 0.0312,0 0,-26.91211 11.26563,-3.01953 0,-13.44531 -12.01954,-3.22071 0,-25.54492 -46.84765,0 z"
             id="path4563"
             inkscape:connector-curvature="0" />
        </g>
        <g
           style="fill:#ffffff"
           transform="matrix(-0.90961937,0,0,0.98606898,668.46587,194.27116)"
           id="g4565">
          <path
             id="path4567"
             d="m 366.39363,427.50968 0,25.54493 12.15223,3.2207 0,13.44531 -11.39001,3.01953 0,26.91211 50.08796,0 0,-72.14258 -50.85018,0 z"
             style="fill:#ffffff;fill-opacity:1;stroke:none;stroke-width:1.05588472;stroke-linecap:square;stroke-miterlimit:4;stroke-dasharray:none;stroke-opacity:1"
             inkscape:connector-curvature="0" />
        </g>
      </g>
      <text
         transform="matrix(0,-1,1,0,0,0)"
         sodipodi:linespacing="125%"
         id="text4589"
         y="877.19666"
         x="-779.89429"
         style="font-style:normal;font-weight:normal;font-size:12.5px;line-height:125%;font-family:sans-serif;text-align:center;letter-spacing:0px;word-spacing:0px;text-anchor:middle;fill:#000000;fill-opacity:1;stroke:none;stroke-width:1px;stroke-linecap:butt;stroke-linejoin:miter;stroke-opacity:1"
         xml:space="preserve"><tspan
           y="877.19666"
           x="-779.89429"
           id="tspan4591"
           sodipodi:role="line">Web Socket</tspan></text>
    </g>
    <g
       transform="translate(466.51205,230.8152)"
       id="g4608">
      <path
         id="path4610"
         d="m 31.495677,325.23683 -46.847653,0 0,72.14258 47.601553,0 0,-26.91211 11.26563,-3.01953 0,-13.44531 -12.01953,-3.2207 0,-25.54493 z"
         style="fill:#d5fff6;fill-opacity:1;stroke:#000000;stroke-width:1;stroke-linecap:square;stroke-miterlimit:4;stroke-dasharray:none;stroke-opacity:1"
         inkscape:connector-curvature="0" />
    </g>
    <g
       id="g4614"
       transform="translate(-7.0213625,3.6226329)">
      <path
         inkscape:connector-curvature="0"
         id="path4616"
         d="m 281.48995,427.71973 0,25.54492 12.01953,3.2207 0,13.44532 -11.26562,3.01953 0,26.91211 32.86524,0 16.67578,0 30.92579,0 0,-26.91211 11.26562,-3.01953 0,-13.44532 -12.01953,-3.2207 0,-25.54492 -30.17188,0 -16.67578,0 -33.61915,0 z"
         style="fill:#2a7fff;fill-opacity:1;stroke:#000000;stroke-width:1;stroke-linecap:square;stroke-miterlimit:4;stroke-dasharray:none;stroke-opacity:1" />
      <text
         xml:space="preserve"
         style="font-style:normal;font-weight:normal;font-size:12.5px;line-height:125%;font-family:sans-serif;text-align:center;letter-spacing:0px;word-spacing:0px;text-anchor:middle;fill:#000000;fill-opacity:1;stroke:none;stroke-width:1px;stroke-linecap:butt;stroke-linejoin:miter;stroke-opacity:1"
         x="327.24609"
         y="468.26828"
         id="text4618"
         sodipodi:linespacing="125%"><tspan
           sodipodi:role="line"
           id="tspan4620"
           x="327.24609"
           y="468.26828">Assemble</tspan></text>
    </g>
    <g
       transform="translate(72.552558,106.56644)"
       id="g4622">
      <path
         id="path4624"
         d="m 31.495677,325.23683 -46.847653,0 0,72.14258 47.601553,0 0,-26.91211 11.26563,-3.01953 0,-13.44531 -12.01953,-3.2207 0,-25.54493 z"
         style="fill:#d5fff6;fill-opacity:1;stroke:#000000;stroke-width:1;stroke-linecap:square;stroke-miterlimit:4;stroke-dasharray:none;stroke-opacity:1"
         inkscape:connector-curvature="0" />
    </g>
    <text
       xml:space="preserve"
       style="font-style:normal;font-weight:normal;font-size:12.5px;line-height:125%;font-family:sans-serif;text-align:start;letter-spacing:0px;word-spacing:0px;text-anchor:start;fill:#000000;fill-opacity:1;stroke:none;stroke-width:1px;stroke-linecap:butt;stroke-linejoin:miter;stroke-opacity:1"
       x="60.986847"
       y="473.75806"
       id="text4638"
       sodipodi:linespacing="125%"><tspan
         sodipodi:role="line"
         id="tspan4640"
         x="60.986847"
         y="473.75806">Time</tspan></text>
    <path
       style="fill:none;fill-rule:evenodd;stroke:#000000;stroke-width:1px;stroke-linecap:butt;stroke-linejoin:miter;stroke-opacity:1"
       d="m 64.59029,508.10324 386.88842,119.198"
       id="path4642"
       inkscape:connector-curvature="0" />
    <path
       style="fill:none;fill-rule:evenodd;stroke:#000000;stroke-width:1px;stroke-linecap:butt;stroke-linejoin:miter;stroke-opacity:1"
       d="M 359.55483,431.33165 494.91527,555.58041"
       id="path4644"
       inkscape:connector-curvature="0" />
    <text
       xml:space="preserve"
       style="font-style:normal;font-weight:normal;font-size:12.5px;line-height:125%;font-family:sans-serif;text-align:start;letter-spacing:0px;word-spacing:0px;text-anchor:start;fill:#000000;fill-opacity:1;stroke:none;stroke-width:1px;stroke-linecap:butt;stroke-linejoin:miter;stroke-opacity:1"
       x="-647.88544"
       y="558.37738"
       id="text4732"
       sodipodi:linespacing="125%"
       transform="matrix(0,-1,1,0,0,0)"><tspan
         sodipodi:role="line"
         id="tspan4734"
         x="-647.88544"
         y="558.37738">Merge</tspan></text>
    <text
       xml:space="preserve"
       style="font-style:normal;font-weight:normal;font-size:12.5px;line-height:125%;font-family:sans-serif;text-align:start;letter-spacing:0px;word-spacing:0px;text-anchor:start;fill:#000000;fill-opacity:1;stroke:none;stroke-width:1px;stroke-linecap:butt;stroke-linejoin:miter;stroke-opacity:1"
       x="-604.35071"
       y="480.30139"
       id="text4204"
       sodipodi:linespacing="125%"
       transform="matrix(0,-1,1,0,0,0)"><tspan
         sodipodi:role="line"
         id="tspan4206"
         x="-604.35071"
         y="480.30139">Roll</tspan></text>
    <g
       id="g4208"
       transform="translate(-92.379255,3.1175567)">
      <path
         inkscape:connector-curvature="0"
         id="path4210"
         d="m 281.48995,427.71973 0,25.54492 12.01953,3.2207 0,13.44532 -11.26562,3.01953 0,26.91211 32.86524,0 16.67578,0 30.92579,0 0,-26.91211 11.26562,-3.01953 0,-13.44532 -12.01953,-3.2207 0,-25.54492 -30.17188,0 -16.67578,0 -33.61915,0 z"
         style="fill:#2a7fff;fill-opacity:1;stroke:#000000;stroke-width:1;stroke-linecap:square;stroke-miterlimit:4;stroke-dasharray:none;stroke-opacity:1" />
      <text
         xml:space="preserve"
         style="font-style:normal;font-weight:normal;font-size:12.5px;line-height:125%;font-family:sans-serif;text-align:center;letter-spacing:0px;word-spacing:0px;text-anchor:middle;fill:#000000;fill-opacity:1;stroke:none;stroke-width:1px;stroke-linecap:butt;stroke-linejoin:miter;stroke-opacity:1"
         x="327.24609"
         y="468.26828"
         id="text4212"
         sodipodi:linespacing="125%"><tspan
           sodipodi:role="line"
           id="tspan4214"
           x="327.24609"
           y="468.26828">Attitude</tspan></text>
    </g>
  </g>
</svg>
