<?xml version="1.0" encoding="UTF-8" standalone="no"?>
<!-- Created with Inkscape (http://www.inkscape.org/) -->

<svg
   xmlns:dc="http://purl.org/dc/elements/1.1/"
   xmlns:cc="http://creativecommons.org/ns#"
   xmlns:rdf="http://www.w3.org/1999/02/22-rdf-syntax-ns#"
   xmlns:svg="http://www.w3.org/2000/svg"
   xmlns="http://www.w3.org/2000/svg"
   xmlns:sodipodi="http://sodipodi.sourceforge.net/DTD/sodipodi-0.dtd"
   xmlns:inkscape="http://www.inkscape.org/namespaces/inkscape"
   width="143.47453mm"
   height="98.952751mm"
   viewBox="0 0 508.37433 350.61998"
   id="svg2"
   version="1.1"
   inkscape:version="0.91 r13725"
   sodipodi:docname="core.svg">
  <defs
     id="defs4" />
  <sodipodi:namedview
     id="base"
     pagecolor="#ffffff"
     bordercolor="#666666"
     borderopacity="1.0"
     inkscape:pageopacity="0.0"
     inkscape:pageshadow="2"
     inkscape:zoom="0.7"
     inkscape:cx="303.49542"
     inkscape:cy="263.82506"
     inkscape:document-units="px"
     inkscape:current-layer="layer1"
     showgrid="false"
     showguides="false"
     inkscape:window-width="1920"
     inkscape:window-height="1034"
     inkscape:window-x="0"
     inkscape:window-y="27"
     inkscape:window-maximized="1"
     fit-margin-top="5"
     fit-margin-left="5"
     fit-margin-right="5"
     fit-margin-bottom="5" />
  <metadata
     id="metadata7">
    <rdf:RDF>
      <cc:Work
         rdf:about="">
        <dc:format>image/svg+xml</dc:format>
        <dc:type
           rdf:resource="http://purl.org/dc/dcmitype/StillImage" />
        <dc:title></dc:title>
      </cc:Work>
    </rdf:RDF>
  </metadata>
  <g
     inkscape:label="Layer 1"
     inkscape:groupmode="layer"
     id="layer1"
     transform="translate(-2.9006682,-702.74118)">
    <rect
       y="887.92548"
       x="383.32303"
       height="137.06248"
       width="88.632553"
       id="rect4696"
       style="fill:#ffffff;fill-opacity:1;stroke:#000000;stroke-width:1.99999988;stroke-linecap:square;stroke-miterlimit:4;stroke-dasharray:none;stroke-opacity:1" />
    <g
       id="g4698"
       transform="matrix(0.88599742,0,0,0.88577608,-64.301122,492.23982)">
      <path
         inkscape:connector-curvature="0"
         id="path4700"
         d="m 502.56976,450.36956 0,72.14258 0.13281,0 0,71.75195 46.72656,0 0,-26.91211 -10.625,-3.01953 0,-13.44531 11.33594,-3.2207 0,-25.1543 0.0312,0 0,-26.91211 11.26563,-3.01953 0,-13.44531 -12.01954,-3.22071 0,-25.54492 -46.84765,0 z"
         style="fill:#2a7fff;fill-opacity:1;stroke:#000000;stroke-width:1.12881243;stroke-linecap:square;stroke-miterlimit:4;stroke-dasharray:none;stroke-opacity:1" />
      <text
         transform="matrix(0,-1,1,0,0,0)"
         sodipodi:linespacing="125%"
         id="text4702"
         y="530.39142"
         x="-518.96277"
         style="font-style:normal;font-weight:normal;font-size:12.5px;line-height:125%;font-family:sans-serif;text-align:center;letter-spacing:0px;word-spacing:0px;text-anchor:middle;fill:#000000;fill-opacity:1;stroke:none;stroke-width:1px;stroke-linecap:butt;stroke-linejoin:miter;stroke-opacity:1"
         xml:space="preserve"><tspan
           y="530.39142"
           x="-518.96277"
           id="tspan4704"
           sodipodi:role="line">connect()</tspan></text>
    </g>
    <g
       id="g4213"
       transform="translate(-357.69509,213.60732)">
      <g
         id="g4706"
         transform="matrix(-0.88599742,0,0,-0.88577608,1080.7912,1285.695)">
        <g
           id="g4708"
           transform="translate(-214.05566,93.896494)"
           style="fill:#d5fff6;fill-opacity:1">
          <path
             inkscape:connector-curvature="0"
             id="path4710"
             d="m 502.56976,450.36956 0,72.14258 0.13281,0 0,71.75195 46.72656,0 0,-26.91211 -10.625,-3.01953 0,-13.44531 11.33594,-3.2207 0,-25.1543 0.0312,0 0,-26.91211 11.26563,-3.01953 0,-13.44531 -12.01954,-3.22071 0,-25.54492 -46.84765,0 z"
             style="fill:#d5fff6;fill-opacity:1;stroke:#000000;stroke-width:1.12881243;stroke-linecap:square;stroke-miterlimit:4;stroke-dasharray:none;stroke-opacity:1" />
        </g>
        <g
           id="g4712"
           transform="matrix(-0.90961937,0,0,0.98606898,668.46587,194.27116)">
          <g
             id="g4210">
            <path
               id="path4714"
               d="m 366.39363,427.50968 0,25.54493 12.15223,3.2207 0,13.44531 -11.39001,3.01953 0,26.91211 50.08796,0 0,-72.14258 -50.85018,0 z"
               style="fill:#0000ff;fill-opacity:1;stroke:none;stroke-width:1.05588472;stroke-linecap:square;stroke-miterlimit:4;stroke-dasharray:none;stroke-opacity:1"
               inkscape:connector-curvature="0" />
          </g>
        </g>
      </g>
      <text
         xml:space="preserve"
         style="font-style:normal;font-weight:normal;font-size:11.07358456px;line-height:125%;font-family:sans-serif;text-align:center;letter-spacing:0px;word-spacing:0px;text-anchor:middle;fill:#000000;fill-opacity:1;stroke:none;stroke-width:1px;stroke-linecap:butt;stroke-linejoin:miter;stroke-opacity:1"
         x="-743.85907"
         y="808.36298"
         id="text4716"
         sodipodi:linespacing="125%"
         transform="matrix(0,-0.99987511,1.0001249,0,0,0)"><tspan
           sodipodi:role="line"
           id="tspan4718"
           x="-743.85907"
           y="808.36298">Web Socket</tspan></text>
    </g>
    <rect
       style="fill:#ffffff;fill-opacity:1;stroke:#000000;stroke-width:1.99999988;stroke-linecap:square;stroke-miterlimit:4;stroke-dasharray:none;stroke-opacity:1"
       id="rect4668"
       width="90.147789"
       height="137.06248"
       x="380.46591"
       y="735.78259" />
    <rect
       style="fill:#ffffff;fill-opacity:1;stroke:#000000;stroke-width:1.99999988;stroke-linecap:square;stroke-miterlimit:4;stroke-dasharray:none;stroke-opacity:1"
       id="rect4646"
       width="102.53049"
       height="304.561"
       x="21.617205"
       y="730.08362" />
    <g
       id="g4300"
       transform="translate(-354.30797,364.28158)">
      <path
         inkscape:connector-curvature="0"
         id="path4302"
         d="m 502.56976,450.36956 0,72.14258 0.13281,0 0,71.75195 46.72656,0 0,-26.91211 -10.625,-3.01953 0,-13.44531 11.33594,-3.2207 0,-25.1543 0.0312,0 0,-26.91211 11.26563,-3.01953 0,-13.44531 -12.01954,-3.22071 0,-25.54492 -46.84765,0 z"
         style="fill:#2a7fff;fill-opacity:1;stroke:#000000;stroke-width:1;stroke-linecap:square;stroke-miterlimit:4;stroke-dasharray:none;stroke-opacity:1" />
    </g>
    <text
       xml:space="preserve"
       style="font-style:normal;font-weight:normal;font-size:12.5px;line-height:125%;font-family:sans-serif;text-align:end;letter-spacing:0px;word-spacing:0px;text-anchor:end;fill:#000000;fill-opacity:1;stroke:none;stroke-width:1px;stroke-linecap:butt;stroke-linejoin:miter;stroke-opacity:1"
       x="324.28571"
       y="694.50507"
       id="text4943"
       sodipodi:linespacing="125%"><tspan
         sodipodi:role="line"
         id="tspan4945"
         x="324.28571"
         y="694.50507" /></text>
    <path
       style="fill:#2a7fff;fill-opacity:1;stroke:#000000;stroke-width:1;stroke-linecap:square;stroke-miterlimit:4;stroke-dasharray:none;stroke-opacity:1"
       d="m 248.76516,811.77247 0,0.17969 -49.82226,0 0,25.54492 12.01953,3.22071 0,13.44531 -11.26563,3.01953 0,26.91211 49.54102,0 0,-0.17969 47.12891,0 0,-26.91211 11.26562,-3.01953 0,-13.44531 -12.01953,-3.22071 0,-25.54492 -46.84766,0 z"
       id="path5164"
       inkscape:connector-curvature="0" />
    <g
       id="g5182"
       transform="translate(107.91705,109.72094)" />
    <g
       transform="matrix(0.88599742,0,0,0.88577608,-67.158262,340.09697)"
       id="g4266">
      <path
         style="fill:#2a7fff;fill-opacity:1;stroke:#000000;stroke-width:1.12881243;stroke-linecap:square;stroke-miterlimit:4;stroke-dasharray:none;stroke-opacity:1"
         d="m 502.56976,450.36956 0,72.14258 0.13281,0 0,71.75195 46.72656,0 0,-26.91211 -10.625,-3.01953 0,-13.44531 11.33594,-3.2207 0,-25.1543 0.0312,0 0,-26.91211 11.26563,-3.01953 0,-13.44531 -12.01954,-3.22071 0,-25.54492 -46.84765,0 z"
         id="path4268"
         inkscape:connector-curvature="0" />
      <text
         xml:space="preserve"
         style="font-style:normal;font-weight:normal;font-size:12.5px;line-height:125%;font-family:sans-serif;text-align:center;letter-spacing:0px;word-spacing:0px;text-anchor:middle;fill:#000000;fill-opacity:1;stroke:none;stroke-width:1px;stroke-linecap:butt;stroke-linejoin:miter;stroke-opacity:1"
         x="-518.96277"
         y="530.39142"
         id="text4270"
         sodipodi:linespacing="125%"
         transform="matrix(0,-1,1,0,0,0)"><tspan
           sodipodi:role="line"
           id="tspan4272"
           x="-518.96277"
           y="530.39142">connect()</tspan></text>
    </g>
    <path
       id="path4816"
       d="m 129.35952,959.43324 0,-72.14257 -0.13281,0 0,-71.75196 -46.726562,0 0,26.91211 10.625,3.01953 0,13.44532 -11.33594,3.2207 0,25.1543 -0.0312,0 0,26.91211 -11.26563,3.01953 0,13.44531 12.01954,3.2207 0,25.54492 46.847652,0 z"
       style="fill:#2a7fff;fill-opacity:1;stroke:#000000;stroke-width:1;stroke-linecap:square;stroke-miterlimit:4;stroke-dasharray:none;stroke-opacity:1"
       inkscape:connector-curvature="0" />
    <text
       transform="matrix(0,-1,1,0,0,0)"
       sodipodi:linespacing="125%"
       id="text4822"
       y="110.50569"
       x="-885.54828"
       style="font-style:normal;font-weight:normal;font-size:12.5px;line-height:125%;font-family:sans-serif;text-align:center;letter-spacing:0px;word-spacing:0px;text-anchor:middle;fill:#000000;fill-opacity:1;stroke:none;stroke-width:1px;stroke-linecap:butt;stroke-linejoin:miter;stroke-opacity:1"
       xml:space="preserve"><tspan
         y="110.50569"
         x="-885.54828"
         id="tspan4824"
         sodipodi:role="line">setBackend()</tspan></text>
    <g
       id="g4367"
       transform="matrix(-1,0,0,1,230.47878,559.87174)">
      <path
         inkscape:connector-curvature="0"
         style="fill:#d5fff6;fill-opacity:1;stroke:#000000;stroke-width:1;stroke-linecap:square;stroke-miterlimit:4;stroke-dasharray:none;stroke-opacity:1"
         d="m 31.495677,325.23683 -46.847653,0 0,72.14258 47.601553,0 0,-26.91211 11.26563,-3.01953 0,-13.44531 -12.01953,-3.2207 0,-25.54493 z"
         id="path4369" />
    </g>
    <g
       id="g4383"
       transform="matrix(-1,0,0,1,666.62945,458.8257)">
      <path
         inkscape:connector-curvature="0"
         style="fill:#0000ff;fill-opacity:1;stroke:#000000;stroke-width:1;stroke-linecap:square;stroke-miterlimit:4;stroke-dasharray:none;stroke-opacity:1"
         d="m 366.39363,427.50968 0,25.54493 12.01953,3.2207 0,13.44531 -11.26563,3.01953 0,26.91211 49.54102,0 0,-72.14258 -50.29492,0 z"
         id="path4385" />
    </g>
    <g
       transform="matrix(-1,0,0,-1,855.11573,1407.5988)"
       id="g4396">
      <path
         style="fill:#2a7fff;fill-opacity:1;stroke:#000000;stroke-width:1;stroke-linecap:square;stroke-miterlimit:4;stroke-dasharray:none;stroke-opacity:1"
         d="m 502.56976,450.36956 0,72.14258 0.13281,0 0,71.75195 46.72656,0 0,-26.91211 -10.625,-3.01953 0,-13.44531 11.33594,-3.2207 0,-25.1543 0.0312,0 0,-26.91211 11.26563,-3.01953 0,-13.44531 -12.01954,-3.22071 0,-25.54492 -46.84765,0 z"
         id="path4398"
         inkscape:connector-curvature="0" />
    </g>
    <rect
       style="fill:#b3b3b3;fill-opacity:1;stroke:none;stroke-width:2;stroke-linecap:square;stroke-miterlimit:4;stroke-dasharray:none;stroke-opacity:1"
       id="rect4416"
       width="28.571428"
       height="304.28571"
       x="351.77518"
       y="729.94092" />
    <rect
       y="729.94092"
       x="122.48946"
       height="303.57141"
       width="28.571428"
       id="rect4418"
       style="fill:#b3b3b3;fill-opacity:1;stroke:none;stroke-width:2;stroke-linecap:square;stroke-miterlimit:4;stroke-dasharray:none;stroke-opacity:1" />
    <g
       id="g4490"
       transform="translate(-266.27628,273.20633)">
      <g
         transform="translate(5.7142857,-0.71428569)"
         id="g4432">
        <g
           id="g4341"
           transform="translate(-214.05566,93.896494)"
           style="fill:#d5fff6;fill-opacity:1">
          <path
             inkscape:connector-curvature="0"
             id="path4343"
             d="m 502.56976,450.36956 0,72.14258 0.13281,0 0,71.75195 46.72656,0 0,-26.91211 -10.625,-3.01953 0,-13.44531 11.33594,-3.2207 0,-25.1543 0.0312,0 0,-26.91211 11.26563,-3.01953 0,-13.44531 -12.01954,-3.22071 0,-25.54492 -46.84765,0 z"
             style="fill:#d5fff6;fill-opacity:1;stroke:#000000;stroke-width:1;stroke-linecap:square;stroke-miterlimit:4;stroke-dasharray:none;stroke-opacity:1" />
        </g>
        <g
           id="g4349"
           transform="matrix(-0.90961937,0,0,0.98606898,668.46587,194.27116)">
          <path
             inkscape:connector-curvature="0"
             style="fill:#0000ff;fill-opacity:1;stroke:none;stroke-width:1.05588472;stroke-linecap:square;stroke-miterlimit:4;stroke-dasharray:none;stroke-opacity:1"
             d="m 366.39363,427.50968 0,25.54493 12.15223,3.2207 0,13.44531 -11.39001,3.01953 0,26.91211 50.08796,0 0,-72.14258 -50.85018,0 z"
             id="path4351" />
        </g>
      </g>
      <text
         transform="matrix(0,-1,1,0,0,0)"
         sodipodi:linespacing="125%"
         id="text4458"
         y="322.2424"
         x="-619.32159"
         style="font-style:normal;font-weight:normal;font-size:12.5px;line-height:125%;font-family:sans-serif;text-align:center;letter-spacing:0px;word-spacing:0px;text-anchor:middle;fill:#000000;fill-opacity:1;stroke:none;stroke-width:1px;stroke-linecap:butt;stroke-linejoin:miter;stroke-opacity:1"
         xml:space="preserve"><tspan
           y="322.2424"
           x="-619.32159"
           id="tspan4460"
           sodipodi:role="line">Drone</tspan></text>
    </g>
    <g
       id="g4194"
       transform="translate(-357.19001,214.61748)">
      <g
         transform="matrix(-0.88599742,0,0,-0.88577608,1077.9341,1133.5522)"
         id="g4438">
        <g
           style="fill:#d5fff6;fill-opacity:1"
           transform="translate(-214.05566,93.896494)"
           id="g4440">
          <path
             style="fill:#d5fff6;fill-opacity:1;stroke:#000000;stroke-width:1.12881243;stroke-linecap:square;stroke-miterlimit:4;stroke-dasharray:none;stroke-opacity:1"
             d="m 502.56976,450.36956 0,72.14258 0.13281,0 0,71.75195 46.72656,0 0,-26.91211 -10.625,-3.01953 0,-13.44531 11.33594,-3.2207 0,-25.1543 0.0312,0 0,-26.91211 11.26563,-3.01953 0,-13.44531 -12.01954,-3.22071 0,-25.54492 -46.84765,0 z"
             id="path4442"
             inkscape:connector-curvature="0" />
        </g>
        <g
           transform="matrix(-0.90961937,0,0,0.98606898,668.46587,194.27116)"
           id="g4444">
          <path
             id="path4446"
             d="m 366.39363,427.50968 0,25.54493 12.15223,3.2207 0,13.44531 -11.39001,3.01953 0,26.91211 50.08796,0 0,-72.14258 -50.85018,0 z"
             style="fill:#0000ff;fill-opacity:1;stroke:none;stroke-width:1.05588472;stroke-linecap:square;stroke-miterlimit:4;stroke-dasharray:none;stroke-opacity:1"
             inkscape:connector-curvature="0" />
        </g>
      </g>
      <text
         transform="matrix(0,-0.99987511,1.0001249,0,0,0)"
         sodipodi:linespacing="125%"
         id="text4475"
         y="805.50623"
         x="-591.6972"
         style="font-style:normal;font-weight:normal;font-size:11.07358456px;line-height:125%;font-family:sans-serif;text-align:center;letter-spacing:0px;word-spacing:0px;text-anchor:middle;fill:#000000;fill-opacity:1;stroke:none;stroke-width:1px;stroke-linecap:butt;stroke-linejoin:miter;stroke-opacity:1"
         xml:space="preserve"><tspan
           y="805.50623"
           x="-591.6972"
           id="tspan4477"
           sodipodi:role="line">Web Socket</tspan></text>
    </g>
    <rect
       style="fill:none;fill-opacity:1;stroke:#000000;stroke-width:2;stroke-linecap:square;stroke-miterlimit:4;stroke-dasharray:none;stroke-opacity:1"
       id="rect4499"
       width="258.35394"
       height="303.68826"
       x="122.87755"
       y="730.45129" />
    <text
       xml:space="preserve"
       style="font-style:normal;font-weight:normal;font-size:12.5px;line-height:125%;font-family:sans-serif;text-align:start;letter-spacing:0px;word-spacing:0px;text-anchor:start;fill:#000000;fill-opacity:1;stroke:none;stroke-width:1px;stroke-linecap:butt;stroke-linejoin:miter;stroke-opacity:1"
       x="158.269"
       y="744.94092"
       id="text4501"
       sodipodi:linespacing="125%"><tspan
         sodipodi:role="line"
         id="tspan4503"
         x="158.269"
         y="744.94092">&quot;Standalone&quot; multiplexer core</tspan></text>
    <text
       xml:space="preserve"
       style="font-style:normal;font-weight:normal;font-size:12.5px;line-height:125%;font-family:sans-serif;text-align:start;letter-spacing:0px;word-spacing:0px;text-anchor:start;fill:#000000;fill-opacity:1;stroke:none;stroke-width:1px;stroke-linecap:butt;stroke-linejoin:miter;stroke-opacity:1"
       x="45.631485"
       y="746.75116"
       id="text4648"
       sodipodi:linespacing="125%"><tspan
         sodipodi:role="line"
         x="45.631485"
         y="746.75116"
         id="tspan4664">Backend</tspan></text>
    <text
       xml:space="preserve"
       style="font-style:normal;font-weight:normal;font-size:12.5px;line-height:125%;font-family:sans-serif;text-align:start;letter-spacing:0px;word-spacing:0px;text-anchor:start;fill:#000000;fill-opacity:1;stroke:none;stroke-width:1px;stroke-linecap:butt;stroke-linejoin:miter;stroke-opacity:1"
       x="394.48624"
       y="729.95477"
       id="text4720"
       sodipodi:linespacing="125%"><tspan
         sodipodi:role="line"
         id="tspan4722"
         x="394.48624"
         y="729.95477">Web connection</tspan></text>
    <text
       xml:space="preserve"
       style="font-style:normal;font-weight:normal;font-size:12.5px;line-height:125%;font-family:sans-serif;text-align:start;letter-spacing:0px;word-spacing:0px;text-anchor:start;fill:#000000;fill-opacity:1;stroke:none;stroke-width:1px;stroke-linecap:butt;stroke-linejoin:miter;stroke-opacity:1"
       x="-941.36993"
       y="226.28401"
       id="text4724"
       sodipodi:linespacing="125%"
       transform="matrix(0,-1,1,0,0,0)"><tspan
         sodipodi:role="line"
         id="tspan4726"
         x="-941.36993"
         y="226.28401">Empty</tspan></text>
    <text
       xml:space="preserve"
       style="font-style:normal;font-weight:normal;font-size:12.5px;line-height:125%;font-family:sans-serif;text-align:start;letter-spacing:0px;word-spacing:0px;text-anchor:start;fill:#000000;fill-opacity:1;stroke:none;stroke-width:1px;stroke-linecap:butt;stroke-linejoin:miter;stroke-opacity:1"
       x="-941.95288"
       y="278.38467"
       id="text4728"
       sodipodi:linespacing="125%"
       transform="matrix(0,-1,1,0,0,0)"><tspan
         sodipodi:role="line"
         id="tspan4730"
         x="-941.95288"
         y="278.38467">Ignore</tspan></text>
  </g>
</svg>
